<?xml version="1.0" encoding="UTF-8"?>
<!DOCTYPE svg PUBLIC "-//W3C//DTD SVG 1.1//EN" "http://www.w3.org/Graphics/SVG/1.1/DTD/svg11.dtd">
<!-- Creator: CorelDRAW 2018 (64-Bit) -->
<svg xmlns="http://www.w3.org/2000/svg" xml:space="preserve" width="129.548mm" height="116.777mm" version="1.1" style="shape-rendering:geometricPrecision; text-rendering:geometricPrecision; image-rendering:optimizeQuality; fill-rule:evenodd; clip-rule:evenodd"
viewBox="0 0 11402.78 10278.61"
 xmlns:xlink="http://www.w3.org/1999/xlink">
 <defs>
  <style type="text/css">
   <![CDATA[
    .fil1 {fill:#434955}
    .fil2 {fill:#83868C}
    .fil0 {fill:#F7901E}
   ]]>
  </style>
 </defs>
 <g id="Layer_x0020_1">
  <metadata id="CorelCorpID_0Corel-Layer"/>
  <g id="_1063780912368">
   <path class="fil0" d="M8356.24 6758.11c0,-515.62 499.35,-606.61 735.31,-387.13 205.09,190.78 224.04,471.34 10.81,676.27 -298.51,286.88 -746.11,35.52 -746.11,-289.14zm-1131.58 -43.52c0,-575.07 913.97,-628.87 913.97,21.77 0,577.77 -913.97,568.87 -913.97,-21.77zm-631.07 456.98c-470.1,0 -614.57,-524.16 -343.69,-778.91 438.98,-412.86 1040.98,206.78 654.66,632.89 -58.38,64.4 -199.31,146.02 -310.97,146.02zm-4569.81 -4373.97l0 3829.95c0,676.86 523.87,1218.61 1196.85,1218.61l5026.8 0 0 631.07c116.53,-78.05 365.95,-354.93 484.19,-473.31 76.48,-81.68 125.32,-139.34 158.34,-157.33 47.83,-0.24 67.83,-0.8 161.96,-1.12 167.07,2.06 307.94,2.05 448.25,-30.49 484.72,-112.41 901.61,-593.95 901.61,-1035.13l0 -4091.07c0,-368.77 -257.47,-743.14 -539.17,-918.81 -208.77,-130.2 -454.26,-191 -722.97,-191l-5831.96 0c-363.75,0 -659.15,101.35 -908.86,331.52 -199,183.45 -375.03,509.33 -375.03,887.1z"/>
   <path class="fil1" d="M3568.81 9500c398.57,0 1400.49,51.02 1704.37,-80.03 75.34,-32.49 203.3,-123.26 259.89,-175.33 311.58,-286.75 256.3,-730.49 256.3,-1123.4 -85.86,0.85 -1327.52,-11.29 -2394.65,-13.95 -467.19,0 -636.42,-33.89 -943.03,-210.3 -239.16,-137.6 -424.35,-369.92 -544.23,-609.09 -157.19,-313.59 -144.82,-556.89 -144.82,-1008.52 0,-384.45 0,-768.89 0,-1153.34l-631.07 0c-383.55,0 -542.94,13.24 -771.46,186.02 -248.62,187.96 -334.21,444.81 -360.11,736.89l0 817.97 0 1482.49c4.23,191.35 11.8,347.87 24.63,429.61 57.13,363.91 378.53,654.68 745.17,712.83 99.38,15.47 240.04,4.16 300.74,8.38 20.61,11.32 33.53,22.52 88.93,80.71 108.48,113.93 385.93,412.25 494.38,484.86l0 -565.78 1914.97 0z"/>
   <path class="fil2" d="M7964.53 8120.51l-2176.1 0.72c0,392.91 56.22,836.65 -255.36,1123.4 -56.59,52.07 -184.55,142.85 -259.89,175.33 -303.88,131.04 -1305.8,80.03 -1704.37,80.03l696.91 369.37c241.57,106.64 514.85,199.07 800.02,266.28 2163.83,509.92 4292.05,-371.41 5523.31,-2211.02 70.6,-105.49 148.99,-232.11 204.71,-339.31 265.37,-510.58 421.89,-945.27 549.58,-1604.78 31.48,-162.58 50.77,-342.62 59.45,-530.53l0 -491.57c-14,-328.29 -54.5,-655.92 -114.06,-936.95 -70.98,-334.85 -425.17,-1381.54 -625.81,-1528.54l21.76 2306.66c0,575.39 61.82,1873.26 -67.31,2282.87 -178.15,565.2 -715.85,1026.39 -1324.65,1025.55 -153.95,-0.21 -206.41,5.08 -283.92,4.43 -59.29,55.06 -154.3,160.3 -440.38,446.37l-435.21 435.22c-54.85,55.17 -75.33,75.49 -169.82,149.99l1.17 -1023.53z"/>
   <path class="fil2" d="M9814.22 1426.65c-77.35,-115.52 -553.07,-470.46 -670.24,-548.36 -673.5,-447.76 -1405.56,-741.01 -2227.88,-840.44 -1331.64,-161.01 -2761.15,192.57 -3799.28,1045.63 -111.22,91.38 -255.04,185.6 -331.41,299.66 412.21,-96.04 395.44,-65.28 826.92,-65.28 761.24,0 5508.29,-24.42 5833.5,20.21 78.69,10.8 108.57,14.69 180.61,37 75.01,23.24 107.86,44.93 187.78,51.59z"/>
   <path class="fil2" d="M1131.57 5126.03l631.07 0 0 -2437.24c-24.5,28.18 -10.13,7.19 -36.09,50.95 -371.72,626.71 -594.98,1648.91 -594.98,2386.29z"/>
  </g>
 </g>
</svg>
